<svg width="100" height="24" viewBox="0 0 100 24" fill="none" xmlns="http://www.w3.org/2000/svg">
  <path d="M5 5H19V12C19 15.866 15.866 19 12 19C8.13401 19 5 15.866 5 12V5Z" stroke="white" stroke-width="2"/>
  <path d="M25 5V19M25 5H38M25 12H35M25 19H38" stroke="white" stroke-width="2"/>
  <path d="M44 5V19H51C54.3137 19 57 16.3137 57 13V11C57 7.68629 54.3137 5 51 5H44Z" stroke="white" stroke-width="2"/>
  <path d="M63 5V19M63 12H70M70 5V19" stroke="white" stroke-width="2"/>
  <path d="M76 5L82 19M88 5L82 19M76 14H88" stroke="white" stroke-width="2"/>
</svg>
