<svg xmlns="http://www.w3.org/2000/svg" viewBox="0 0 32 32"><path d="M31.994 14.528c-.027-.273-.362-.486-.862-.702l-3.515-1.536 3.43-1.382c.48-.208.79-.417.816-.685.027-.273-.362-.486-.862-.702l-4.55-1.95 4.465-1.796c.48-.208.79-.417.816-.685.027-.273-.362-.486-.862-.702L16.01 0 2.148 4.388c-.5.216-.89.43-.916.702-.027.273.362.486.862.702l4.465 1.796-4.55 1.95c-.5.216-.89.43-.916.702-.027.273.362.486.862.702l3.43 1.382-3.515 1.536c-.5.216-.89.43-.916.702-.027.273.362.486.862.702l4.465 1.796-4.55 1.95c-.5.216-.89.43-.916.702-.027.273.362.486.862.702l3.43 1.382-3.515 1.536c-.5.216-.89.43-.916.702-.027.273.362.486.862.702l4.465 1.796-4.55 1.95c-.5.216-.89.43-.916.702-.027.273.362.486.862.702L16.01 32l13.862-4.388c.5-.216.89-.43.916-.702.027-.273-.362-.486-.862-.702l-4.465-1.796 4.55-1.95c.5-.216.89-.43.916-.702.027-.273-.362-.486-.862-.702l-3.43-1.382 3.515-1.536c.5-.216.89-.43.916-.702.027-.273-.362-.486-.862-.702l-4.465-1.796 4.55-1.95c.5-.216.89-.43.916-.702.027-.273-.362-.486-.862-.702l-3.43-1.382 3.515-1.536c.5-.216.89-.43.916-.702zm-15.607 7.702l-2.95 1.254-2.95-1.254 2.95-1.254zm-3.93-13.96l3.93 1.543 3.93-1.543-3.93-1.542zM9.522 12.19l3.93 1.542 3.93-1.542-3.93-1.542zm7.86 3.93l-3.93 1.542 3.93 1.542 3.93-1.542zm0 5.472l-3.93 1.542 3.93 1.542 3.93-1.542zm4.93-9.402l-2.95 1.254-2.95-1.254 2.95-1.254zm-8.86 0l-2.95 1.254-2.95-1.254 2.95-1.254zm-8.86 0l-2.95 1.254-2.95-1.254 2.95-1.254zm0 5.472l-2.95 1.254-2.95-1.254 2.95-1.254zm17.72 0l-2.95 1.254-2.95-1.254 2.95-1.254z" fill="#fff"/></svg>
