<svg xmlns="http://www.w3.org/2000/svg" width="2065" height="2500" viewBox="0 0 256 308"><path d="M78.706 143.464c0 4.928 0.525 8.89 1.472 11.887 1.05 2.997 2.415 6.258 4.287 9.778 0.628 1.05 0.944 2.1 0.944 3.046 0 1.366-0.84 2.731-2.626 4.097l-8.68 5.775c-1.26 0.84-2.52 1.26-3.675 1.26-1.47 0-2.94-0.735-4.41-2.1-2.1-2.31-3.885-4.725-5.355-7.247-1.47-2.625-2.94-5.565-4.515-8.89-11.361 13.461-25.66 20.192-42.896 20.192-12.201 0-21.976-3.465-29.116-10.396C-7.574 163.865-11.45 154.4-11.45 142.729c0-12.201 4.305-22.05 13.02-29.536 8.715-7.486 20.296-11.256 34.846-11.256 4.83 0 9.87 0.42 15.226 1.155 5.355 0.735 10.92 1.89 16.8 3.255V91.906c0-11.046-2.31-18.743-6.825-23.1-4.62-4.358-12.411-6.51-23.415-6.51-5.04 0-10.29 0.63-15.646 1.89-5.355 1.26-10.605 2.94-15.75 4.935-2.31 1.05-4.02 1.68-5.04 1.89-1.05 0.21-1.785 0.315-2.31 0.315-2.1 0-3.15-1.575-3.15-4.83V58.43c0-2.52 0.315-4.305 1.05-5.46 0.735-1.155 2.1-2.31 4.2-3.465 5.25-2.73 11.571-5.04 18.9-6.93C26.775 40.685 34.47 39.74 42.45 39.74c16.17 0 28.056 3.675 35.77 11.046 7.591 7.38 11.466 18.636 11.466 33.796v58.882h-10.98zM41.4 166.174c4.83 0 9.87-0.84 15.226-2.625 5.355-1.785 10.08-5.04 14.07-9.555 2.415-2.835 4.2-6.09 5.145-9.765 0.945-3.675 1.575-8.085 1.575-13.23v-6.3c-4.2-1.05-8.715-1.89-13.44-2.52-4.725-0.63-9.345-0.945-13.86-0.945-9.87 0-17.115 1.995-21.945 5.985-4.83 3.99-7.17 9.66-7.17 17.01 0 6.93 1.785 12.096 5.46 15.646 3.57 3.675 8.715 5.46 15.96 5.46v-0.21h-0.021zm121.275 15.33c-2.73 0-4.515-0.525-5.775-1.575-1.26-1.05-2.415-3.36-3.36-6.72L127.05 58.746c-0.945-3.57-1.47-5.985-1.47-7.17 0-2.94 1.47-4.515 4.41-4.515h18.06c2.835 0 4.725 0.525 5.88 1.575 1.26 1.05 2.1 3.36 3.15 6.72l18.375 72.345 17.01-72.345c0.945-3.57 1.89-5.67 3.15-6.72 1.26-1.05 3.36-1.575 6.09-1.575h14.7c2.835 0 4.83 0.525 6.09 1.575 1.26 1.05 2.31 3.36 3.15 6.72l17.22 73.29 18.9-73.29c1.05-3.57 2.1-5.67 3.15-6.72 1.26-1.05 3.36-1.575 5.985-1.575h17.22c2.94 0 4.515 1.575 4.515 4.515 0 0.945-0.105 1.89-0.315 2.94-0.21 1.05-0.525 2.52-1.155 4.41l-26.67 114.45c-0.945 3.57-2.1 5.88-3.36 6.93-1.26 1.05-3.15 1.575-5.775 1.575h-15.855c-2.835 0-4.83-0.525-6.09-1.575-1.26-1.05-2.31-3.36-3.15-6.93L208.74 78.045l-16.8 71.19c-0.945 3.57-1.89 5.88-3.15 6.93-1.26 1.05-3.36 1.575-6.09 1.575h-15.855l-4.17-0.21zM378.27 184.6c-20.4 15.12-50.04 23.1-84.99 23.1-24.99 0-47.726-4.62-67.83-13.755-3.57-1.68-4.62-4.2-1.89-7.38l9.345-12.516c1.26-1.68 2.73-2.625 4.41-2.625 0.945 0 1.89 0.21 2.94 0.63 17.85 9.345 37.345 14.07 58.38 14.07 13.965 0 25.2-2.415 33.586-7.17 8.4-4.83 12.6-11.676 12.6-20.4 0-6.51-2.1-11.886-6.405-16.17-4.305-4.305-12.6-8.19-24.885-11.676l-35.77-11.256c-17.01-5.25-29.326-12.726-36.75-22.365-7.38-9.66-11.046-20.61-11.046-32.76 0-9.345 2.1-17.64 6.3-24.885 4.2-7.17 9.87-13.335 17.01-18.375 7.17-5.04 15.33-8.925 24.57-11.571 9.24-2.625 18.9-3.99 29.01-3.99 12.6 0 24.15 1.47 34.65 4.305 10.5 2.835 19.53 6.72 27.09 11.571 3.36 2.1 4.83 4.62 4.2 7.38-0.63 2.73-1.89 7.38-3.78 13.86-0.84 2.52-1.995 4.095-3.465 4.725-1.47 0.63-3.15 0.315-5.25-0.84-7.38-4.62-15.435-8.19-24.15-10.71-8.715-2.52-17.43-3.78-26.145-3.78-12.81 0-22.995 2.1-30.45 6.3-7.38 4.2-11.046 10.605-11.046 19.32 0 6.51 2.31 11.991 6.93 16.38 4.62 4.41 13.44 8.505 26.46 12.18l34.86 11.046c16.8 5.46 28.686 12.6 35.77 21.525 7.065 8.925 10.605 19.215 10.605 30.975 0 9.555-1.995 18.27-5.985 26.04-3.99 7.8-9.45 14.49-16.38 20.19l-0.105-0.105z" fill="#fff"/></svg>
