<svg width="1963" height="2500" viewBox="0 0 256 326" xmlns="http://www.w3.org/2000/svg" preserveAspectRatio="xMinYMin meet"><g fill="#fff"><path d="M114.784 0h53.278v244.191c-27.29 5.162-47.38 7.193-69.117 7.193-65.021 0-98.44-29.269-98.44-85.449 0-54.366 36.585-89.872 93.61-89.872 8.845 0 15.513.86 20.669 2.458V0zm0 124.994c-5.549-1.71-10.688-2.311-16.858-2.311-25.393 0-40.033 15.513-40.033 42.154 0 26.161 13.963 40.614 39.475 40.614 5.421 0 9.962-.235 17.416-1.173v-79.284z"/><path d="M255.187 84.26v122.263c0 42.152-3.094 62.366-12.476 79.87-8.656 16.866-20.07 27.55-43.457 39.188l-49.346-23.89c23.385-10.848 34.83-20.305 42.17-34.939 7.58-15.153 10.062-32.755 10.062-78.91V84.261h53.047z"/><path d="M196.608 0h53.278v54.135h-53.278V0z"/></g></svg>
