<svg xmlns="http://www.w3.org/2000/svg" width="60" height="43" viewBox="0 0 60 43"><g fill="none" fill-rule="evenodd"><path fill="#fff" d="M60.51 17.224c-.145-1.13-.636-2.15-1.678-3.453l-.34-.41-.36.39c-.693.75-1.303 1.6-1.797 2.533-.29.55-.525 1.11-.702 1.672-.53.17-.53.34-.53.51.53.17.106.34.16.51.16.51.372 1.02.636 1.53.106.22.212.44.33.66l.16.3.32-.14c.795-.34 1.59-.75 2.332-1.23.69-.45 1.38-.97 1.963-1.53.16-.15.32-.3.47-.46l.16-.17-.106-.2z"/><path fill="#fff" d="M54.5 17.224H51.7v-2.8h2.8v2.8zm0-3.35H51.7v-2.8h2.8v2.8zm-3.35 3.35h-2.8v-2.8h2.8v2.8zm-3.35 0h-2.8v-2.8h2.8v2.8zm-3.35 0h-2.8v-2.8h2.8v2.8zm3.35-3.35h-2.8v-2.8h2.8v2.8zm-3.35 0h-2.8v-2.8h2.8v2.8zm-3.35 0h-2.8v-2.8h2.8v2.8zm-3.35 0h-2.8v-2.8h2.8v2.8zm-3.35 0h-2.8v-2.8h2.8v2.8zm-3.35 0h-2.8v-2.8h2.8v2.8zm3.35-3.35h-2.8v-2.8h2.8v2.8zm-3.35 0h-2.8v-2.8h2.8v2.8zm-3.35 0h-2.8v-2.8h2.8v2.8zm-3.35 0h-2.8v-2.8h2.8v2.8z"/><path fill="#fff" fill-rule="nonzero" d="M38.003 25.626c.4 3.16-.24 6.32-1.84 9.03-2.32 3.97-6.44 6.32-10.9 6.32H3.606c-.48 0-.88-.4-.88-.88 0-.48.4-.88.88-.88h21.658c3.97 0 7.6-2.08 9.67-5.52 1.44-2.4 2-5.2 1.68-8-.08-.64-.24-1.28-.4-1.92-.08-.24-.08-.48-.16-.72-.08-.4.16-.8.56-.96.4-.08.8.16.96.56.8.24.16.48.16.72.16.72.32 1.44.48 2.24zm-13.1-5.84c.08-.08.16-.08.24-.08h.08c.16 0 .32.08.48.16.16.16.24.32.24.56 0 .16-.08.32-.16.48-.08.08-.16.16-.24.24s-.16.08-.24.08h-.08c-.16 0-.32-.08-.48-.16-.16-.16-.24-.32-.24-.56 0-.16.08-.32.16-.48.08-.08.16-.16.24-.24zm-1.76.96c.08-.08.16-.08.24-.08h.08c.16 0 .32.08.48.16.16.16.24.32.24.56 0 .16-.08.32-.16.48-.08.08-.16.16-.24.24s-.16.08-.24.08h-.08c-.16 0-.32-.08-.48-.16-.16-.16-.24-.32-.24-.56 0-.16.08-.32.16-.48.08-.08.16-.16.24-.24zm-1.76.96c.08-.08.16-.08.24-.08h.08c.16 0 .32.08.48.16.16.16.24.32.24.56 0 .16-.08.32-.16.48-.08.08-.16.16-.24.24s-.16.08-.24.08h-.08c-.16 0-.32-.08-.48-.16-.16-.16-.24-.32-.24-.56 0-.16.08-.32.16-.48.08-.08.16-.16.24-.24z"/><path fill="#fff" d="M30.003 18.104c-.16-.16-.32-.24-.56-.24s-.4.08-.56.24c-.16.16-.24.32-.24.56s.08.4.24.56c.16.16.32.24.56.24s.4-.08.56-.24c.16-.16.24-.32.24-.56s-.08-.4-.24-.56zm-2.8 0c-.16-.16-.32-.24-.56-.24s-.4.08-.56.24c-.16.16-.24.32-.24.56s.08.4.24.56c.16.16.32.24.56.24s.4-.08.56-.24c.16-.16.24-.32.24-.56s-.08-.4-.24-.56zm-2.8 0c-.16-.16-.32-.24-.56-.24s-.4.08-.56.24c-.16.16-.24.32-.24.56s.08.4.24.56c.16.16.32.24.56.24s.4-.08.56-.24c.16-.16.24-.32.24-.56s-.08-.4-.24-.56z"/><path fill="#fff" fill-rule="nonzero" d="M59.63 15.694c-.32-.4-.72-.72-1.12-1.04-.96-.72-2.08-1.12-3.27-1.12h-.08c-.48 0-.96.08-1.44.24-.16-.96-.48-1.84-.96-2.72-.64-1.12-1.52-2.08-2.56-2.8-1.04-.72-2.24-1.12-3.51-1.12h-.08c-.8 0-1.6.16-2.32.48-.4.16-.8.4-1.2.64-.24-.08-.4-.24-.64-.32-.56-.24-1.12-.32-1.76-.32h-.08c-.96 0-1.84.32-2.64.88-.4.32-.8.72-1.12 1.2-.24-.08-.56-.08-.8-.08h-.08c-1.52 0-2.8.72-3.67 1.84-.48.64-.8 1.36-.96 2.16-.8.24-1.52.64-2.16 1.12-.96.72-1.68 1.68-2.16 2.8-.48 1.12-.64 2.32-.48 3.51.16 1.2.64 2.32 1.36 3.27.72.96 1.68 1.68 2.8 2.16.4.16.8.24 1.2.32.64 1.44 1.76 2.64 3.19 3.43 1.44.8 3.03 1.12 4.63.96 1.6-.16 3.11-.8 4.31-1.84.64-.56 1.2-1.2 1.6-1.92.4.08.8.08 1.2.08 1.76 0 3.43-.72 4.63-1.92.4-.4.72-.8 1.04-1.28.32.08.64.08.96.08 1.36 0 2.64-.4 3.75-1.2 1.12-.8 1.92-1.84 2.4-3.11.48-1.28.56-2.64.24-3.99-.32-1.28-.96-2.48-1.92-3.35zm-1.44 6.95c-.4 1.04-1.12 1.92-2.08 2.48-.96.56-2.08.8-3.19.56-.24 0-.4-.08-.64-.16-.32-.08-.56-.48-.48-.8.08-.32.48-.56.8-.48.16 0 .32.08.48.08.8.16 1.6 0 2.32-.4.72-.4 1.2-1.04 1.52-1.76.32-.8.4-1.6.24-2.4-.16-.8-.56-1.52-1.12-2.08-.56-.56-1.28-.96-2.08-1.12-.8-.16-1.6-.08-2.4.24-.24.08-.4.16-.64.32-.24.16-.56.08-.72-.16-.16-.24-.08-.56.16-.72.24-.16.48-.32.8-.4 1.04-.4 2.16-.48 3.19-.24 1.04.24 1.92.8 2.64 1.52.72.72 1.2 1.6 1.44 2.64.24 1.04.16 2.16-.24 3.19zm-9.02-16.09c.96 0 1.84.32 2.64.88.8.56 1.44 1.36 1.84 2.24.4.88.56 1.84.48 2.8-.08.96-.4 1.84-.96 2.64-.24.32-.48.56-.8.8-.24.24-.64.16-.88-.08-.24-.24-.16-.64.08-.88.24-.16.4-.4.56-.64.4-.56.64-1.28.72-1.92.08-.72-.08-1.44-.32-2.08-.32-.64-.8-1.2-1.36-1.6-.56-.4-1.28-.56-1.92-.56h-.08c-.72 0-1.36.24-1.92.64-.56.4-1.04.96-1.36 1.6-.16.32-.56.4-.88.24-.32-.16-.4-.56-.24-.88.4-.88 1.04-1.68 1.84-2.24.8-.56 1.68-.88 2.64-.88h.08zm-8.33 3.27c.56-.4 1.28-.64 1.92-.64h.08c.32 0 .56.24.56.56s-.24.56-.56.56h-.08c-.48 0-.88.16-1.28.4-.4.24-.64.64-.8 1.04-.16.4-.24.88-.16 1.36.08.48.24.88.56 1.28.32.4.72.64 1.2.8.48.16.96.16 1.44 0 .48-.16.88-.48 1.2-.88.16-.24.56-.32.8-.08.24.16.32.56.08.8-.48.64-1.12 1.04-1.84 1.28-.72.24-1.52.24-2.24 0-.72-.24-1.36-.64-1.84-1.28-.48-.64-.8-1.36-.88-2.16-.08-.8 0-1.6.32-2.32.32-.72.8-1.36 1.52-1.76zm-5.53.8c.64-.8 1.6-1.28 2.64-1.28h.08c.32 0 .56.24.56.56s-.24.56-.56.56h-.08c-.72 0-1.44.32-1.92.96-.48.64-.64 1.36-.56 2.16 0 .32-.24.56-.56.56s-.56-.24-.56-.56c-.08-1.04.16-2.08.96-2.96zm-4.15 2.08c.4-.56.96-.96 1.6-1.2.64-.24 1.36-.32 2.08-.16.32.08.48.4.4.72-.08.32-.4.48-.72.4-.48-.08-.96-.08-1.44.08-.48.16-.88.48-1.12.88-.24.4-.4.88-.4 1.36s.16.96.4 1.36c.24.4.64.72 1.12.88.48.16.96.16 1.44.08.48-.08.88-.32 1.2-.64.24-.24.64-.24.88 0s.24.64 0 .88c-.48.48-1.04.8-1.68.96-.64.16-1.36.16-2 0-.64-.16-1.2-.56-1.68-1.04-.48-.48-.8-1.04-.96-1.68-.16-.64-.16-1.36 0-2 .16-.64.56-1.2 1.04-1.68zm-4.15 2.08c.4-.8 1.04-1.44 1.84-1.84.8-.4 1.76-.56 2.64-.4.32.08.56.4.48.72-.08.32-.4.56-.72.48-.64-.08-1.28 0-1.84.32-.56.32-1.04.8-1.28 1.36-.24.56-.32 1.2-.24 1.84.08.64.32 1.2.8 1.68.48.48 1.04.8 1.68.88.64.08 1.28 0 1.84-.32.56-.32 1.04-.8 1.28-1.36.16-.32.56-.4.88-.24.32.16.4.56.24.88-.4.8-1.04 1.44-1.84 1.84-.8.4-1.76.56-2.64.4-.88-.16-1.68-.56-2.32-1.2-.64-.64-1.04-1.44-1.2-2.32-.16-.88 0-1.84.4-2.64zm-3.35 1.68c.16-.64.48-1.2.96-1.68.48-.48 1.04-.8 1.68-.96.64-.16 1.36-.16 2 0 .64.16 1.2.56 1.68 1.04.24.24.24.64 0 .88s-.64.24-.88 0c-.32-.32-.72-.56-1.2-.64-.48-.08-.96-.08-1.44.08-.48.16-.88.48-1.12.88-.24.4-.4.88-.4 1.36s.16.96.4 1.36c.24.4.64.72 1.12.88.48.16.96.16 1.44.08.48-.08.88-.32 1.2-.64.24-.24.64-.24.88 0s.24.64 0 .88c-.48.48-1.04.8-1.68.96-.64.16-1.36.16-2 0-.64-.16-1.2-.56-1.68-1.04-.48-.48-.8-1.04-.96-1.68-.16-.64-.16-1.36 0-2zm-3.35-3.35c.4-.8 1.04-1.44 1.84-1.84.8-.4 1.76-.56 2.64-.4.88.16 1.68.56 2.32 1.2.64.64 1.04 1.44 1.2 2.32.16.88 0 1.84-.4 2.64-.4.8-1.04 1.44-1.84 1.84-.8.4-1.76.56-2.64.4-.88-.16-1.68-.56-2.32-1.2-.64-.64-1.04-1.44-1.2-2.32-.16-.88 0-1.84.4-2.64zm1.28.64c-.32.56-.4 1.2-.32 1.84.08.64.32 1.2.8 1.68.48.48 1.04.8 1.68.88.64.08 1.28 0 1.84-.32.56-.32 1.04-.8 1.28-1.36.24-.56.32-1.2.24-1.84-.08-.64-.32-1.2-.8-1.68-.48-.48-1.04-.8-1.68-.88-.64-.08-1.28 0-1.84.32-.56.32-1.04.8-1.28 1.36h.08zm-3.43 1.68c.16-.64.48-1.2.96-1.68.48-.48 1.04-.8 1.68-.96.64-.16 1.36-.16 2 0 .64.16 1.2.56 1.68 1.04.24.24.24.64 0 .88s-.64.24-.88 0c-.32-.32-.72-.56-1.2-.64-.48-.08-.96-.08-1.44.08-.48.16-.88.48-1.12.88-.24.4-.4.88-.4 1.36s.16.96.4 1.36c.24.4.64.72 1.12.88.48.16.96.16 1.44.08.48-.08.88-.32 1.2-.64.24-.24.64-.24.88 0s.24.64 0 .88c-.48.48-1.04.8-1.68.96-.64.16-1.36.16-2 0-.64-.16-1.2-.56-1.68-1.04-.48-.48-.8-1.04-.96-1.68-.16-.64-.16-1.36 0-2z"/></g></svg>
