<svg xmlns="http://www.w3.org/2000/svg" viewBox="0 0 32 32"><path d="M15.9.476a2.14 2.14 0 0 0-.823.218L3.932 6.01c-.582.277-1.005.804-1.15 1.432L.054 19.373c-.13.56-.025 1.14.3 1.62.326.48.83.793 1.366.847l11.415 1.145c.657.06 1.308-.25 1.63-.814l6.004-10.4c.325-.563.37-1.237.12-1.83L16.89 1.858c-.207-.505-.663-.882-1.193-.935a2.13 2.13 0 0 0-.239-.019 2.14 2.14 0 0 0-.568.095 2.12 2.12 0 0 0-1.02.763A2.14 2.14 0 0 0 13.5 2.67a2.14 2.14 0 0 0 .416 1.274l3.57 5.353-3.589 6.22h-7.1l.147-3.083 3.667-6.203.1-.163-4.309-6.475a2.15 2.15 0 0 0-1.28-.906 2.14 2.14 0 0 0-.807-.082 2.13 2.13 0 0 0-.776.221 2.15 2.15 0 0 0-.992 1.145 2.14 2.14 0 0 0-.04.826c.064.267.182.512.345.723l3.565 5.353-3.156 5.347-6.267.627a2.14 2.14 0 0 0-1.546 2.138 2.14 2.14 0 0 0 3.23 1.716l.001-.001 5.109-3.201 5.931.594.14.014 5.931-.594 5.109 3.2a2.14 2.14 0 0 0 2.1.142 2.14 2.14 0 0 0 1.136-1.857 2.14 2.14 0 0 0-1.848-2.114l.001-.025-6.267-.627-3.157-5.347 3.56-5.35a2.14 2.14 0 0 0 .345-.724 2.14 2.14 0 0 0-.993-2.27l.018.008a2.13 2.13 0 0 0-.807-.082 2.14 2.14 0 0 0-1.28.906l-4.309 6.475.099.163 3.667 6.203.147 3.083h-7.1l-3.589-6.22 3.56-5.35a2.14 2.14 0 0 0 .416-1.274 2.14 2.14 0 0 0-.369-.908 2.12 2.12 0 0 0-1.02-.763 2.14 2.14 0 0 0-.568-.095z" fill="#fff"/></svg>
