<svg xmlns="http://www.w3.org/2000/svg" viewBox="0 0 32 32"><path d="M15.9.087l.854 1.604c.192.296.4.558.645.802.715.715 1.394 1.464 2.004 2.266 1.447 1.9 2.423 4.01 3.12 6.292.418 1.394.645 2.824.662 4.27.07 4.323-1.412 8.035-4.4 11.12-.488.488-1.01.94-1.57 1.342-.296 0-.436-.227-.558-.436-.227-.383-.366-.82-.436-1.255-.105-.523-.174-1.046-.14-1.586v-.244C16.057 24.21 15.796.21 15.9.087z" fill="#599636"/><path d="M15.9.034c-.035-.07-.07-.017-.105.017.017.35-.523 24.087-.523 24.087l.314 4.834.366-.7c.384-.767.627-1.587.767-2.415.14-.68.227-1.394.227-2.09-.053-1.823-.44-3.484-1.174-5.1-.488-1.046-1.046-2.09-1.586-3.12-.54-1.08-.97-2.176-1.297-3.307-.347-1.157-.627-2.327-.767-3.52-.07-.558-.105-1.1-.105-1.674-.017-.627.053-1.237.157-1.848.07-.627.174-1.237.296-1.848.14-.767.296-1.5.488-2.25.105-.383.227-.767.366-1.15.053-.087.07-.174.053-.26z" fill="#6cac48"/><path d="M16.754 28.845c.035-.4.227-.732.436-1.063-.21-.087-.366-.26-.488-.453-.105-.174-.192-.383-.26-.575-.244-.732-.296-1.5-.366-2.248v-.453c-.087.07-.105.662-.105.75-.017.174-.035.383-.035.558 0 .574.053 1.15.157 1.706.07.383.174.732.296 1.1.087.314.192.627.314.906.052.104.087.227.157.314.174.418.662.638 1.046.24.07-.052.14-.087.192-.156.052-.07.087-.14.14-.227.17-.244.035-.47.035-.706 0-.156 0-.33-.052-.47z" fill="#c2bfbf"/></svg>
