<svg xmlns="http://www.w3.org/2000/svg" viewBox="0 0 25.6 25.6"><g fill="none" stroke="#fff"><path d="M18.983 18.636c.163-1.357.114-1.555 1.124-1.336l.257.023c.777.035 1.793-.125 2.4-.402 1.285-.596 2.047-1.592.78-1.33-2.89.596-3.1-.383-3.1-.383 3.053-4.53 4.33-10.28 3.227-11.687-3.004-3.84-8.205-2.024-8.292-1.976l-.028.005c-.57-.12-1.2-.19-1.93-.2-1.308-.02-2.3.343-3.054.914 0 0-9.277-3.822-8.846 4.807.092 1.836 2.63 13.9 5.66 10.25C8.29 15.987 9.36 14.86 9.36 14.86c.53.353 1.167.533 1.834.468l.052-.044a2.01 2.01 0 0 0 .021.518c-.78.872.21 1.4 1.098 1.342.633-.04 1.9-.402 3.074-1.395.624-.497 1.92-1.984 2.544-3.115z" stroke-width="1.2" stroke-linecap="round" stroke-linejoin="round"/><path d="M20.312 21.586c-1.522 1.185-4.613.61-5.649 1.21-.382.227-1.09 1.185-.18 2.525 2.298 3.3 5.62-.48 5.648-.61.285-1.25.2-2.38.2-2.38.226-.57-.02-.745-.02-.745z" stroke-width=".3" stroke-linecap="round" stroke-linejoin="round"/><path d="M10.597 8.05c-.346 0-.648.14-.884.36-.236.227-.378.526-.378.854 0 .328.142.63.378.853.236.222.538.36.884.36.346 0 .648-.138.884-.36.236-.224.377-.525.377-.853 0-.328-.142-.627-.377-.853-.236-.22-.538-.36-.884-.36z" stroke-width=".2" stroke-linecap="round" stroke-linejoin="round"/><path d="M19.502 7.98c-.346 0-.648.14-.884.36-.236.226-.378.525-.378.853 0 .328.142.63.378.853.236.222.538.36.884.36.346 0 .648-.138.884-.36.236-.224.377-.525.377-.853 0-.328-.14-.627-.377-.854-.236-.22-.538-.36-.884-.36z" stroke-width=".2" stroke-linecap="round" stroke-linejoin="round"/><path d="M15.95 21.3c.346-.89.164-1.66.164-1.66" stroke-width=".2" stroke-linecap="round" stroke-linejoin="round"/><path d="M16.516 21.8c.008-.327.147-.87.147-.87" stroke-width=".2" stroke-linecap="round" stroke-linejoin="round"/></g></svg>
