<svg xmlns="http://www.w3.org/2000/svg" xmlns:xlink="http://www.w3.org/1999/xlink" width="110.4211" height="109.8461" version="1.1" id="Layer_1" x="0px" y="0px" viewBox="0 0 110.4 109.8" style="enable-background:new 0 0 110.4 109.8;" xml:space="preserve">
<style type="text/css">
	.st0{fill:url(#SVGID_1_);}
	.st1{fill:url(#SVGID_2_);}
	.st2{opacity:0.444;fill:url(#SVGID_3_);enable-background:new    ;}
</style>
<g>
	<linearGradient id="SVGID_1_" gradientUnits="userSpaceOnUse" x1="55.2289" y1="83.2643" x2="55.2289" y2="109.9761">
		<stop offset="0" style="stop-color:#387EB8"/>
		<stop offset="1" style="stop-color:#366994"/>
	</linearGradient>
	<path class="st0" d="M55.2,109.9c-14.6,0-13.7-6.3-13.7-6.3l0-6.5h13.9v-2H36.8c0,0-9.4,1.1-9.4-13.8c0-14.9,8.2-14.4,8.2-14.4h4.9   v6.9c0,0-0.3,8.2,8.1,8.2h13.9c0,0,7.8,0.1,7.8-7.6V60.9c0,0,1.2-9.4-14.3-9.4c0,0.1-24.2-1.4-24.2,14c0,15.4,23.5,14.9,23.5,14.9   h3.9c0,0-0.6,5-4,8.4c-3.4,3.4-9.5,4.7-15.3,4.5C30,93,17.7,91.2,14.4,85.2c-3.3-6-3.1-10.5-3.1-16.9c0-6.4,1.3-12.1,4.5-16.2   c3.9-5.1,10.6-7.8,18-7.8c0.5,0,1,0,1.5,0c6.8,0.2,11.6,1.9,14.9,3.5c1.3,0.6,2.3,0.9,3.1,0.9c1.3,0,1.8-0.9,1.9-1   c1.2-2.2,2.3-6.1,2.6-9.5c0.5-4.4,0.2-7.4-0.1-8.4c-0.2-0.7-0.7-1.3-1.2-1.5c-0.5-0.2-1.2-0.3-1.9-0.3c-0.9,0-1.9,0.1-3.2,0.4l-0.4,0.1   c-3.1,0.4-7.8,1.2-12.7,1.3c-2.8,0.1-5.5,0-8.2-0.3c-4-0.4-8.6-0.4-12.7,1.3c-4,1.6-7.6,5.2-8.4,10.9c-0.1,0.5-0.1,0.9-0.1,1.4   c0,5.3,2.6,9.8,7.2,11.9c0.4,0.2,0.9,0.3,1.3,0.4c1.1,0.3,2.5,0.1,3.4-0.1l0.3-0.1c1.8-0.4,3.1-0.9,3.8-1.5c0.6-0.5,0.7-1.3,0.3-1.9   c-0.4-0.6-1.2-0.8-1.8-0.5c-0.3,0.1-0.8,0.3-1.6,0.6c-0.3,0.1-0.6,0.2-0.9,0.3c-0.4,0.1-0.8,0.2-1.3,0.2c-0.5,0-0.9-0.1-1.2-0.3   c-0.3-0.2-0.5-0.4-0.7-0.9c-0.4-1-0.2-3.2,0.2-4.4c0.8-2.3,2.3-3.6,4.4-3.7c0.4,0,0.8,0,1.3,0.1c1.4,0.2,2.7,0.3,4.1,0.3   c7.5,0,14.9-1.3,18.5-1.9c0.2,0,0.5-0.1,0.7-0.1c0.5,0,0.8,0.1,0.9,0.1c0.1,0.8,0.2,4.1-0.3,7.1c-0.5,3-1.6,5.9-2,6.6l-0.1,0.2   c-0.2,0.5-1.3,2.9-4.4,2.9c-1.4,0-2.8-0.5-4.6-1.3c-3-1.4-8.1-3.3-15.4-3.5c-0.2,0-0.3,0-0.5,0c-13.9,0-23.8,9.5-23.8,22.9   c0,5.9-0.4,16.8,7.1,24.2c3.2,3.2,9.3,7,20.4,7c5.9,0,12.8-1.3,17-5.1c4.7-4.3,5.2-10.1,5.2-11.2v-1.6h-13.9c0,0-10,0.6-10-10v-9.3h24.8   c0,0,13.6-0.3,13.6,13.2v11.2C80.6,109.2,69.8,109.9,55.2,109.9z M45.8,79.9c-1.4,0-2.6,1.2-2.6,2.6c0,1.4,1.2,2.6,2.6,2.6   c1.4,0,2.6-1.2,2.6-2.6C48.4,81.1,47.3,79.9,45.8,79.9z"/>
	<linearGradient id="SVGID_2_" gradientUnits="userSpaceOnUse" x1="55.1541" y1="0.2191" x2="55.1541" y2="26.4309">
		<stop offset="0" style="stop-color:#FFE052"/>
		<stop offset="1" style="stop-color:#FFC331"/>
	</linearGradient>
	<path class="st1" d="M55.2,0.2c14.6,0,13.7,6.3,13.7,6.3l0,6.5H55v2h18.7c0,0,9.4-1.1,9.4,13.8c0,14.9-8.2,14.4-8.2,14.4h-4.9v-6.9   c0,0,0.3-8.2-8.1-8.2H47.9c0,0-7.8-0.1-7.8,7.6v13.5c0,0-1.2,9.4,14.3,9.4c15.5,0,24.2,1.4,24.2-14c0-15.4-23.5-14.9-23.5-14.9h-3.9   c0,0,0.6-5,4-8.4c3.4-3.4,9.5-4.7,15.3-4.5c9.9,0.3,22.2,2.1,25.5,8.1c3.3,6,3.1,10.5,3.1,16.9c0,6.4-1.3,12.1-4.5,16.2   c-3.9,5.1-10.6,7.8-18,7.8c-0.5,0-1,0-1.5,0c-6.8-0.2-11.6-1.9-14.9-3.5c-1.3-0.6-2.3-0.9-3.1-0.9c-1.3,0-1.8,0.9-1.9,1   c-1.2,2.2-2.3,6.1-2.6,9.5c-0.5,4.4-0.2,7.4,0.1,8.4c0.2,0.7,0.7,1.3,1.2,1.5c0.5,0.2,1.2,0.3,1.9,0.3c0.9,0,1.9-0.1,3.2-0.4l0.4-0.1   c3.1-0.4,7.8-1.2,12.7-1.3c2.8-0.1,5.5,0,8.2,0.3c4,0.4,8.6,0.4,12.7-1.3c4-1.6,7.6-5.2,8.4-10.9c0.1-0.5,0.1-0.9,0.1-1.4   c0-5.3-2.6-9.8-7.2-11.9c-0.4-0.2-0.9-0.3-1.3-0.4c-1.1-0.3-2.5-0.1-3.4,0.1l-0.3,0.1c-1.8,0.4-3.1,0.9-3.8,1.5c-0.6,0.5-0.7,1.3-0.3,1.9   c0.4,0.6,1.2,0.8,1.8,0.5c0.3-0.1,0.8-0.3,1.6-0.6c0.3-0.1,0.6-0.2,0.9-0.3c0.4-0.1,0.8-0.2,1.3-0.2c0.5,0,0.9,0.1,1.2,0.3   c0.3,0.2,0.5,0.4,0.7,0.9c0.4,1,0.2,3.2-0.2,4.4c-0.8,2.3-2.3,3.6-4.4,3.7c-0.4,0-0.8,0-1.3-0.1c-1.4-0.2-2.7-0.3-4.1-0.3   c-7.5,0-14.9,1.3-18.5,1.9c-0.2,0-0.5,0.1-0.7,0.1c-0.5,0-0.8-0.1-0.9-0.1c-0.1-0.8-0.2-4.1,0.3-7.1c0.5-3,1.6-5.9,2-6.6l0.1-0.2   c0.2-0.5,1.3-2.9,4.4-2.9c1.4,0,2.8,0.5,4.6,1.3c3,1.4,8.1,3.3,15.4,3.5c0.2,0,0.3,0,0.5,0c13.9,0,23.8-9.5,23.8-22.9   c0-5.9,0.4-16.8-7.1-24.2c-3.2-3.2-9.3-7-20.4-7c-5.9,0-12.8,1.3-17,5.1c-4.7,4.3-5.2,10.1-5.2,11.2v1.6h13.9c0,0,10-0.6,10,10v9.3H29.8   c0,0-13.6,0.3-13.6-13.2V22.3C16.2,0.9,27,0.2,55.2,0.2z M64.6,30.2c1.4,0,2.6-1.2,2.6-2.6c0-1.4-1.2-2.6-2.6-2.6   c-1.4,0-2.6,1.2-2.6,2.6C62,29,63.2,30.2,64.6,30.2z"/>
	<linearGradient id="SVGID_3_" gradientUnits="userSpaceOnUse" x1="55.2499" y1="86.0723" x2="55.2499" y2="107.0203">
		<stop offset="0" style="stop-color:#FFFFFF"/>
		<stop offset="1" style="stop-color:#FFFFFF"/>
	</linearGradient>
	<path class="st2" d="M81.8,87.1c-0.1,1.9-0.8,6.3-4.4,9.7c-3.7,3.4-9.6,4.7-15.7,4.4c-0.8,0-1.7-0.1-2.5-0.2c-2.7-0.3-5.6-1-8.2-2.5   c-2.6-1.5-5.1-3.8-6.5-7.1c-0.8-1.9-1.2-4-1.4-6.1c-0.1-2.2,0-4.3,0-6.2v-3.7h9.8h7.6v4.4c0,0.7,0,1.5,0.2,2.2c0.2,0.7,0.7,1.3,1.5,1.6   c1.6,0.6,4.1,0.7,5.7,0.1c0.7-0.3,1.3-0.9,1.6-1.5c0.3-0.6,0.4-1.4,0.4-2.1v-4.7h-17.4c-2.1,0-4-0.1-5.8-0.5c-1.8-0.3-3.4-0.9-4.9-1.7   c-1.4-0.8-2.6-1.8-3.5-3.1c-0.9-1.3-1.6-2.9-2-4.8c-0.4-1.9-0.6-4-0.6-6.4c0-2.4,0.2-4.5,0.6-6.4c0.4-1.9,1.1-3.5,2-4.8   c0.9-1.3,2.1-2.3,3.5-3.1c1.4-0.8,3.1-1.3,4.9-1.7c1.8-0.3,3.8-0.5,5.8-0.5h17.4v4.7c0,0.7-0.1,1.4-0.4,2.1c-0.3,0.6-0.8,1.2-1.6,1.5   c-1.6,0.6-4.1,0.5-5.7-0.1c-0.8-0.3-1.3-0.9-1.5-1.6c-0.2-0.7-0.2-1.5-0.2-2.2v-4.4h-7.6h-9.8v3.7c0,1.9-0.1,4,0,6.2   c0.1,2.1,0.5,4.2,1.4,6.1c1.4,3.3,3.9,5.6,6.5,7.1c2.6,1.5,5.5,2.2,8.2,2.5c0.8,0.1,1.7,0.2,2.5,0.2c6.1,0.3,12-1,15.7-4.4   c3.6-3.4,4.3-7.8,4.4-9.7H81.8z"/>
</g>
</svg>
